<?xml version="1.0" encoding="utf-8"?>
<svg version="1.1" id="Layer_1" xmlns="http://www.w3.org/2000/svg" xmlns:xlink="http://www.w3.org/1999/xlink" x="0px" y="0px"
	 viewBox="0 0 428 492" enable-background="new 0 0 428 492" xml:space="preserve">
<linearGradient id="SVGID_1_" gradientUnits="userSpaceOnUse" x1="213.9" y1="492" x2="213.9" y2="3.799787e-07">
	<stop  offset="0" style="stop-color:#F0545E"/>
	<stop  offset="0.2603" style="stop-color:#EF5461"/>
	<stop  offset="0.4236" style="stop-color:#EA5669"/>
	<stop  offset="0.5603" style="stop-color:#E25878"/>
	<stop  offset="0.6821" style="stop-color:#D75B8C"/>
	<stop  offset="0.7942" style="stop-color:#C960A7"/>
	<stop  offset="0.8976" style="stop-color:#B865C8"/>
	<stop  offset="0.9951" style="stop-color:#A46BEE"/>
	<stop  offset="1" style="stop-color:#A36BF0"/>
</linearGradient>
<path fill="url(#SVGID_1_)" d="M213.9,492c-1.9,0-3.8-0.6-5.5-1.6c-65.7-27.6-115.7-62.1-148.5-102.7c-29.2-36.2-40.3-70.9-46.7-97
	C2.4,246.6,0.3,185.7,0,153.3c-0.2-21.2,0.3-41.9,1.3-58.3c1.7-27,4-29.7,5.8-31.8c2-2.4,4.9-3.6,7.9-3.3
	c61.5,5,124-26.1,161.4-44.7c17.4-8.7,28.9-14.4,36.7-15.1l0.7-0.1h0.7c7.1,0.5,16.6,5.1,35.9,14.7c37.7,18.7,100.7,50.1,162.4,45.1
	l0,0c3-0.2,5.9,1,7.9,3.3c1.8,2.1,4.1,4.8,5.8,31.8c1,16.5,1.5,37.2,1.3,58.3c-0.3,32.4-2.3,93.3-13.1,137.3
	c-6.4,26.2-17.5,60.9-46.7,97c-32.8,40.6-82.8,75.1-148.5,102.7c-1.8,1.1-3.7,1.7-5.6,1.6C214,492,213.9,492,213.9,492z M20.8,78.1
	c-1.6,11.6-3.4,40.4-2.9,79.6c0.4,30.5,2.5,87.8,12.5,128.7c14,56.9,47.5,129.5,183.6,187c136.1-57.4,169.6-130,183.5-186.9
	c10-40.9,12.2-98.2,12.5-128.7c0.5-39.2-1.3-68.1-2.9-79.6C343,80.7,280.5,49.6,242.6,30.7c-11.3-5.6-24-11.9-28.5-12.8
	c-5,1-17.5,7.2-29.6,13.2c-36.1,18-94.7,47.1-155.9,47.1C26,78.2,23.4,78.2,20.8,78.1z"/>
<linearGradient id="SVGID_2_" gradientUnits="userSpaceOnUse" x1="213.95" y1="416.1" x2="213.95" y2="87.8417">
	<stop  offset="0" style="stop-color:#F0545E"/>
	<stop  offset="0.2738" style="stop-color:#EF5461"/>
	<stop  offset="0.4366" style="stop-color:#EA5669"/>
	<stop  offset="0.5704" style="stop-color:#E35877"/>
	<stop  offset="0.6884" style="stop-color:#D85B8B"/>
	<stop  offset="0.7961" style="stop-color:#CA5FA5"/>
	<stop  offset="0.8963" style="stop-color:#B964C6"/>
	<stop  offset="0.9888" style="stop-color:#A66AEB"/>
	<stop  offset="1" style="stop-color:#A36BF0"/>
</linearGradient>
<path fill="url(#SVGID_2_)" d="M278.7,204.9c18.9-22.3,28-43.9,28-66.2c0-13.9-5.4-26.8-15.3-36.4c-6.6-6.4-14.8-10.9-23.7-13.1
	c-9-2.2-18.7-1.7-28.1,1.3c-11.1,3.5-20,13.8-25.8,21.6c-6.1-7.8-14.8-17.9-25.3-21.5c-9.1-3.1-18.9-3.6-28.3-1.3
	c-8.9,2.2-17.1,6.7-23.7,13.1c-9.9,9.6-15.3,22.5-15.3,36.4c0,22.8,9.5,45.1,28.2,66.3c6.2,7.1,21,21.8,55.6,51.9v58.7h-42.4
	c-4.9,0-8.9,4-8.9,8.9s4,8.9,8.9,8.9H205v73.7c0,4.9,4,8.9,8.9,8.9s8.9-4,8.9-8.9v-73.7h42.4c4.9,0,8.9-4,8.9-8.9s-4-8.9-8.9-8.9
	h-42.4V257C233.2,248.3,265.2,220.9,278.7,204.9z M162.8,193.3c-15.9-18.1-23.7-35.9-23.7-54.5c0-9,3.5-17.4,9.9-23.6
	c4.3-4.2,9.6-7.1,15.5-8.5c2.5-0.6,5.1-0.9,7.7-0.9c3.6,0,7.2,0.6,10.6,1.8c7.1,2.4,15.7,13.8,19.8,19.3c4,5.4,6.5,8.6,11.5,8.6
	c5.1,0,7.5-3.4,10.9-8.1c4-5.6,12.3-17.2,20.2-19.7c6.3-2,12.6-2.3,18.5-0.9c5.8,1.4,11.2,4.4,15.5,8.5c6.4,6.2,9.9,14.6,9.9,23.6
	c0,17.8-7.8,35.7-23.8,54.6l0,0c-11.5,13.6-39,37.5-51,47.7C182.1,213.3,168.6,199.8,162.8,193.3z"/>
</svg>
